<svg id="af79b24e-56bc-4cf8-a8c1-027f138a6249" data-name="Layer 1" xmlns="http://www.w3.org/2000/svg" width="865.76" height="682.89" viewBox="0 0 865.76 682.89"><path d="M192.8,662.57s-48.81,3.39-48-58.11c0,0,1.9-51.33,19.6-97.59,0,0,10.11-23.13-8.85-63.75,0,0-70.17-119-44.57-171.5,0,0,122.32-234.12,300.59-243.71,0,0,202.92-27.08,316.71,20.31,0,0,79.65,20.31,26.55,133.7,0,0-77.1,113.4-28.45,181.94,0,0,115.68,149.85-37.93,298.75Z" fill="#0071f2"/><path d="M192.8,662.57s-48.81,3.39-48-58.11c0,0,1.9-51.33,19.6-97.59,0,0,10.11-23.13-8.85-63.75,0,0-70.17-119-44.57-171.5,0,0,122.32-234.12,300.59-243.71,0,0,202.92-27.08,316.71,20.31,0,0,79.65,20.31,26.55,133.7,0,0-77.1,113.4-28.45,181.94,0,0,115.68,149.85-37.93,298.75Z" fill="#fff" opacity="0.7"/><polygon points="578.24 312.33 632.75 250.53 647.45 261.25 608.97 312.33 578.24 312.33" fill="#a7a9ac"/><polygon points="603.95 184.26 631.65 244.39 647.45 244.39 611.15 161.23 603.95 164.58 603.95 184.26" fill="#a7a9ac"/><ellipse cx="606.59" cy="144.96" rx="9.84" ry="23.1" fill="#a7a9ac"/><rect x="339.52" y="82.14" width="257.23" height="129.14" fill="#bcbec0"/><rect x="355.02" y="93.42" width="223.21" height="105.61" fill="#fff"/><path d="M596.75,82.14h8.06a3.41,3.41,0,0,1,3.41,3.41V207.88a3.41,3.41,0,0,1-3.41,3.41h-8.06a0,0,0,0,1,0,0V82.14A0,0,0,0,1,596.75,82.14Z" fill="#a7a9ac"/><polygon points="471.43 123.65 437.8 181.89 421.81 181.89 463.44 109.79 471.43 123.65" fill="#0071f2"/><polygon points="484.04 145.46 463 181.89 446.99 181.89 476.02 131.59 484.04 145.46" fill="#2f2e41"/><polygon points="505.05 181.89 489.02 181.89 481.2 168.34 489.01 154.11 505.05 181.89" fill="#2f2e41"/><path d="M481.44,177.38a4.51,4.51,0,1,1-4.51-4.51A4.51,4.51,0,0,1,481.44,177.38Z" fill="#0071f2"/><polygon points="416.06 191.59 415.82 191.45 467.89 101.84 468.13 101.98 416.06 191.59" fill="#d1d3d4"/><polygon points="431.96 192.6 431.72 192.46 483.79 102.85 484.04 102.99 431.96 192.6" fill="#d1d3d4"/><polygon points="441.05 191.88 440.81 191.74 492.88 102.13 493.13 102.27 441.05 191.88" fill="#d1d3d4"/><polygon points="456.98 192.6 456.74 192.46 508.81 102.85 509.06 102.99 456.98 192.6" fill="#d1d3d4"/><polygon points="467.21 192.6 466.97 192.46 519.04 102.85 519.28 102.99 467.21 192.6" fill="#d1d3d4"/><rect x="417.37" y="181.75" width="94.72" height="0.28" fill="#d1d3d4"/><polygon points="507.17 186.12 458.99 101.98 459.23 101.84 507.41 185.98 507.17 186.12" fill="#d1d3d4"/><rect x="466.26" y="342.48" width="139.92" height="320.2" fill="#d1d3d4"/><rect x="606.18" y="342.48" width="50.94" height="320.2" fill="#bcbec0"/><rect x="480.38" y="375.5" width="109.4" height="37.03" fill="#fff" opacity="0.2"/><rect x="480.38" y="437.48" width="109.4" height="33.39" fill="#fff" opacity="0.2"/><rect x="480.38" y="492.75" width="109.4" height="156.44" fill="#fff" opacity="0.2"/><rect x="504.5" y="451.17" width="187.38" height="125.73" fill="#0071f2"/><rect x="504.5" y="451.17" width="187.38" height="23.31" opacity="0.2"/><rect x="504.5" y="451.17" width="87.52" height="23.31" opacity="0.2"/><rect x="524.27" y="488.59" width="23.2" height="23.2" opacity="0.4"/><rect x="527.15" y="539.15" width="23.2" height="23.2" fill="#fff" opacity="0.1"/><polygon points="540.43 562.35 550.35 551.5 550.35 562.35 540.43 562.35" fill="#fff"/><rect x="558.34" y="539.15" width="23.2" height="23.2" fill="#fff" opacity="0.2"/><polygon points="571.62 562.35 581.54 551.5 581.54 562.35 571.62 562.35" fill="#fff"/><rect x="589.77" y="539.15" width="23.2" height="23.2" fill="#fff" opacity="0.3"/><polygon points="603.06 562.35 612.98 551.5 612.98 562.35 603.06 562.35" fill="#fff"/><rect x="621.07" y="539.15" width="23.2" height="23.2" fill="#fff" opacity="0.4"/><polygon points="634.35 562.35 644.27 551.5 644.27 562.35 634.35 562.35" fill="#fff"/><rect x="652.11" y="539.15" width="23.2" height="23.2" fill="#fff" opacity="0.5"/><polygon points="665.39 562.35 675.31 551.5 675.31 562.35 665.39 562.35" fill="#fff"/><rect x="644.27" y="492.75" width="12.17" height="12.17" opacity="0.3"/><rect x="664.27" y="492.75" width="12.17" height="12.17" opacity="0.35"/><rect x="184.27" y="342.48" width="12.92" height="320.2" fill="#bcbec0"/><path d="M378.66,508.75,314.34,599a198.27,198.27,0,0,1,10.93,17.14c.22.37.43.75.65,1.14,6.31,11.37,11.81,24.75,6.34,29.71L309.8,625.51l-.82-.77-47.66-45.59,48.08-73L302,498.62l44.73-51.26L383.24,480S390.67,489.07,378.66,508.75Z" fill="#f9b499"/><path d="M325.92,617.28c-7.82-.51-13.66,5.25-16.12,8.23a21.41,21.41,0,0,0-1.31,1.72l-.94-.6a19.36,19.36,0,0,1,1.43-1.89c2.56-3.06,8.4-8.77,16.29-8.6C325.49,616.51,325.7,616.89,325.92,617.28Z" fill="#0071f2"/><path d="M443.62,497.23l-63.84,90.24s5.16,8.16,10.22,17.4l.87,1.62c5.72,10.65,10.87,22.19,7.64,24.18l-27.69-23.93-.93-.81-35.58-30.75-8.47-7.33-1.74-1.5,1.74-2.71,8.47-13.21,41.15-64.2-7.35-7.57,41.44-44.11L446,467.19S455.63,477.55,443.62,497.23Z" fill="#f9b499"/><rect x="164.18" y="312.34" width="516.62" height="17.94" rx="2.88" fill="#bcbec0"/><rect x="177.1" y="330.28" width="490.08" height="16.5" fill="#d1d3d4"/><path d="M575.34,200.2,488,312.34H281.18l83.69-111.4a7.77,7.77,0,0,1,6.2-3.11H574.18A1.47,1.47,0,0,1,575.34,200.2Z" fill="#d1d3d4"/><path d="M374.27,207.1H544.73a3.28,3.28,0,0,1,2.57,5.31L479.23,298.1a7.56,7.56,0,0,1-5.84,2.87l-124.21,1.56-13.35-45.1,35.8-49A3.27,3.27,0,0,1,374.27,207.1Z" fill="#fff" opacity="0.2"/><path d="M325.92,161.23s12.42,10.47,0,13.67Z" fill="#f7a48b"/><path d="M271.15,203.82V128.7l49.9-1.73s5.2,2.77,4.85,14.9V179s.35,12.48-13.86,21.14c0,0-3.42,1.57-4.86,3.73Z" fill="#f9b499"/><path d="M257.14,159.56s3.37,15.12,9.5,23.86a11.73,11.73,0,0,0,15.57,3.45,22.77,22.77,0,0,0,7.77-7.76l8.34-18.37s7.44-4.17,2.95-26.61l24.65-9s-2.71-22.94-30.88-22.94c0,0-33.66-1.24-36.66,23.44,0,0-26.68-12.22-29.92,12.22,0,0-2.49,17.45,18.7,14.71a17.45,17.45,0,0,1-7.73,12.81A20.35,20.35,0,0,0,257.14,159.56Z" fill="#2f2e41"/><path d="M247.16,152.58a29.28,29.28,0,0,0,7.4-2.31,20.67,20.67,0,0,0,3.3-1.94,32.92,32.92,0,0,0,3-2.49,11.65,11.65,0,0,1-2.47,3.17,16.09,16.09,0,0,1-1.59,1.27,18.36,18.36,0,0,1-1.78,1,15.1,15.1,0,0,1-3.86,1.23A12.06,12.06,0,0,1,247.16,152.58Z" opacity="0.2"/><path d="M264.87,149.21a13.61,13.61,0,0,1-1.1,3.12,19.18,19.18,0,0,1-1.69,2.86,13.66,13.66,0,0,1-4.94,4.37c.71-.85,1.43-1.64,2.1-2.48s1.32-1.67,1.93-2.55C262.43,152.8,263.59,151,264.87,149.21Z" opacity="0.2"/><path d="M258.38,125.65a20.69,20.69,0,0,1,4.24,20.19s8.09-.69,5.58-13.19a8.49,8.49,0,0,0-9.82-7Z" opacity="0.2"/><path d="M261,214.17c3.17-.57-1.81-4.81-1-6.53a6.84,6.84,0,0,1,6.25-3.82h40.94s.12-1.22,4.86-3.73c0,0,8.22,5.29,1,15.73A72.47,72.47,0,0,1,354.5,236.9l42.4,39.2,33.6-28.48s24.32,17,29.12,39l-48,43.84s-8.64,15.36-23,5.44l-42.24-33.28.64,27.2s10,7,7.16,23.25a5.37,5.37,0,0,1-5.42,4.48l-124-3.33a4.07,4.07,0,0,1-3.8-2.93c-1.7-5.79-4-19,6.74-26.59l.7-84.59a17.4,17.4,0,0,1,5.73-12.76A54.78,54.78,0,0,1,261,214.17Z" fill="#0071f2"/><path d="M312.74,250.18c0,3,.15,5.91.41,8.84a77.1,77.1,0,0,0,1.16,8.74,40,40,0,0,0,2.43,8.39c1.13,2.63,2.77,5.17,5.22,6.51l.05,0,0,0c4.08,3.3,8.2,6.53,12.24,9.87s8.09,6.66,12.06,10.08c-4.24-3.08-8.42-6.25-12.58-9.43s-8.26-6.44-12.4-9.66l.08.06a10.19,10.19,0,0,1-3.46-3.09,19.61,19.61,0,0,1-2.2-4,38.41,38.41,0,0,1-2.35-8.64,77.65,77.65,0,0,1-.85-8.86A84.84,84.84,0,0,1,312.74,250.18Z" opacity="0.2"/><path d="M409.38,287.94A66.46,66.46,0,0,1,396.9,276.1a56.74,56.74,0,0,1,6.63,5.52A57.47,57.47,0,0,1,409.38,287.94Z" opacity="0.2"/><path d="M409.55,434.55l-41.44,44.11a5.27,5.27,0,0,1-7.11.52l-6.11-4.86a5.26,5.26,0,0,1-1-7.13l-14.34-11.33-39.14,45.45a3.14,3.14,0,0,1-4.39.37l-9.55-7.91a3.13,3.13,0,0,1-.54-4.24l2.34-3.3L244.9,442.08a65.68,65.68,0,0,1-14.37-21.85c-4.43-10.71-6.45-22.14-7.2-32.45a145.48,145.48,0,0,1,1.36-33.52l124,3.33-.12,12.8,50.22,45a14.27,14.27,0,0,1,11.44,4.83,8.16,8.16,0,0,1,1.87,3.24A11.1,11.1,0,0,1,409.55,434.55Z" fill="#2f2e41"/><line x1="310.52" y1="462.74" x2="288.24" y2="486.23" fill="none" stroke="#000" stroke-miterlimit="10" opacity="0.2"/><line x1="353.86" y1="467.19" x2="383.14" y2="435.15" fill="none" stroke="#000" stroke-miterlimit="10" opacity="0.2"/><path d="M269.2,387.79h30.18s.06,20.07,2.49,27.37c0,0,2.71,8.64-13.63,8.1,0,0-12.56,2.16-16.88-13.51A68.85,68.85,0,0,1,269.2,387.79Z" opacity="0.2"/><path d="M230.53,420.23c-4.43-10.71-6.45-22.14-7.2-32.45h8.75a3.47,3.47,0,0,1,3.47,3.38c.14,5.67.65,17,2.43,21.9C238,413.06,239.93,418.81,230.53,420.23Z" opacity="0.2"/><path d="M324.1,566.35l-4.64,6.4,71.48,61.14a4.14,4.14,0,0,0,6.24-1l1.32-2.2Z" fill="#0071f2"/><path d="M261.32,579.15S254.5,584.27,259,590l69.07,59.16,4.21-2.19Z" fill="#0071f2"/><polyline points="325.84 563.63 375.46 486.23 368.11 478.66" fill="none" stroke="#f7a48b" stroke-miterlimit="10"/><rect x="221.23" y="444.21" width="8.46" height="218.47" fill="#d1d3d4"/><polygon points="334.3 662.68 325.84 662.68 325.84 444.21 334.3 449.27 334.3 662.68" fill="#d1d3d4"/><rect x="277.09" y="444.21" width="9.89" height="216.93" fill="#d1d3d4"/><g opacity="0.2"><path d="M251.7,381.56c.21,3.81.31,7.63.39,11.44s.07,7.63.11,11.45l0,2.86v1.43a6.67,6.67,0,0,0,.1,1.34,6.34,6.34,0,0,0,1,2.45c.5.7,1.21,1.41,1.82,2.13l3.76,4.32c1.23,1.46,2.48,2.89,3.69,4.38-1.38-1.33-2.7-2.7-4.05-4.05l-4-4.13a21.76,21.76,0,0,1-2-2.16,7.22,7.22,0,0,1-1.2-2.77,8.72,8.72,0,0,1-.13-1.51v-1.43l0-2.86c.05-3.82,0-7.63.12-11.45S251.5,385.37,251.7,381.56Z"/></g><path d="M224.69,354.26l124,3.33-.1,10.26H223.33A106.79,106.79,0,0,1,224.69,354.26Z" opacity="0.2"/><rect x="230.74" y="352.62" width="6.35" height="15.23" fill="#0071f2"/><polygon points="298.64 367.85 291.32 367.85 291.32 354.91 298.64 356.05 298.64 367.85" fill="#0071f2"/><path d="M502.83,238.39l-8.61,1.72a.59.59,0,0,1-.23,0l-74.52-9.21a3.88,3.88,0,0,1,.48-7.74,3.59,3.59,0,0,1,.47,0l74.45,9.21a.64.64,0,0,1,.35.14l7.63,5.72A.07.07,0,0,1,502.83,238.39Z" fill="#2f2e41"/><path d="M579.84,203a9.29,9.29,0,0,1-2.1,5.8L495.49,312.34H488L575.34,200.2a1.47,1.47,0,0,0-1.16-2.38C578.74,197.82,579.82,200.54,579.84,203Z" fill="#a7a9ac"/><circle cx="547.3" cy="224.12" r="3.31" opacity="0.2"/><circle cx="533.91" cy="241.07" r="3.31" opacity="0.2"/><circle cx="521.3" cy="257.94" r="3.31" opacity="0.2"/><polygon points="495.49 312.33 559 312.34 530.59 268.16 495.49 312.33" fill="#d1d3d4"/><ellipse cx="286.06" cy="163.64" rx="12.47" ry="16.3" fill="#f9b499"/><path d="M293.29,170.59a.56.56,0,0,1-.56-.56,11.39,11.39,0,0,0-9-11.67.55.55,0,0,1-.44-.65.57.57,0,0,1,.65-.45c.1,0,9.93,2,9.93,12.77A.56.56,0,0,1,293.29,170.59Z" fill="#f7a48b"/><path d="M283.82,166a.56.56,0,0,1-.32-1A19.89,19.89,0,0,1,291,162a.55.55,0,0,1,.63.47.56.56,0,0,1-.48.63,19.35,19.35,0,0,0-7.06,2.72A.61.61,0,0,1,283.82,166Z" fill="#f7a48b"/><path d="M334.3,449.27H213a5.19,5.19,0,0,1-5.19-5.19v-13.2a5.19,5.19,0,0,1,5.19-5.19h95.93Z" fill="#bcbec0"/><path d="M247.33,425.69l15.39-.29,15.39-.16,15.39-.07c5.13,0,10.26-.06,15.39,0h.22l.16.15c6.52,6.21,13.09,12.37,19.57,18.62s13,12.5,19.38,18.83q-10.05-9-19.94-18.23c-6.64-6.09-13.17-12.29-19.76-18.43l.37.15c-5.13,0-10.26,0-15.39,0l-15.39-.06L262.72,426Z" fill="#2f2e41"/><path d="M247.33,425.69l15.39-.29,15.39-.16,15.39-.07c5.13,0,10.26-.06,15.39,0h.22l.16.15c6.52,6.21,13.09,12.37,19.57,18.62s13,12.5,19.38,18.83q-10.05-9-19.94-18.23c-6.64-6.09-13.17-12.29-19.76-18.43l.37.15c-5.13,0-10.26,0-15.39,0l-15.39-.06L262.72,426Z" opacity="0.2"/><path d="M390.87,606.49c-8.38-4.13-16.49-1.41-20.05.25a16.43,16.43,0,0,0-1.9,1l-.61-.94a15.76,15.76,0,0,1,1.58-.85c3.33-1.6,11.46-4.64,20.11-1.06Z" fill="#0071f2"/><path d="M432.46,249.08l15.81-23a5.12,5.12,0,0,1,4.22-2.22h13.83a5.15,5.15,0,0,1,3.53,1.41l16.63,15.83a4.82,4.82,0,0,1,1.49,3.56c-.08,4.54-1.64,14.83-13.73,19.16,0,0-5.76,16.94-16.4,16.93C457.84,280.72,451.79,263.05,432.46,249.08Z" fill="#f9b499"/><path d="M458.49,227.83a35.38,35.38,0,0,1,6.59-1,34.53,34.53,0,0,1,6.66.16,33.68,33.68,0,0,1-6.59,1A34.55,34.55,0,0,1,458.49,227.83Z" fill="#f7a48b"/><path d="M463.43,235.35a51.43,51.43,0,0,1,8-1,50.23,50.23,0,0,1,8,.07,49.12,49.12,0,0,1-8,1A50.23,50.23,0,0,1,463.43,235.35Z" fill="#f7a48b"/><path d="M473.3,242.87a35.23,35.23,0,0,1,6.52-1.45,34.31,34.31,0,0,1,6.66-.35,39.38,39.38,0,0,1-13.18,1.8Z" fill="#f7a48b"/><path d="M474.24,263.79a17.16,17.16,0,0,1-1-4.53,16.82,16.82,0,0,1,.08-4.64,16.88,16.88,0,0,1,1,4.53A17.21,17.21,0,0,1,474.24,263.79Z" fill="#f7a48b"/><circle cx="637.5" cy="254.76" r="14.64" fill="#bcbec0"/><rect x="636.56" y="142.36" width="154.61" height="51.4" rx="5.04" fill="#0071f2"/><rect x="636.56" y="142.36" width="154.61" height="51.4" rx="5.04" fill="#fff" opacity="0.5"/><rect x="655.78" y="151.97" width="29.15" height="29.15" rx="3.57" fill="#0071f2"/><rect x="699.29" y="151.97" width="29.15" height="29.15" rx="3.57" fill="#0071f2"/><rect x="742.81" y="151.97" width="29.15" height="29.15" rx="3.57" fill="#0071f2"/><g opacity="0.5"><path d="M728.63,186.87H697.85a4.28,4.28,0,0,1-4.28-4.28V151.81a4.28,4.28,0,0,1,4.28-4.28h30.78a4.28,4.28,0,0,1,4.28,4.28v30.78A4.28,4.28,0,0,1,728.63,186.87Zm-30.78-38.78a3.73,3.73,0,0,0-3.72,3.72v30.78a3.73,3.73,0,0,0,3.72,3.72h30.78a3.73,3.73,0,0,0,3.72-3.72V151.81a3.73,3.73,0,0,0-3.72-3.72Z" fill="#fff"/></g><path d="M664.7,168.5,663.56,172h-1.47l3.74-11h1.71l3.76,11h-1.52l-1.18-3.46Zm3.61-1.11-1.08-3.17c-.24-.72-.4-1.37-.57-2h0c-.16.66-.34,1.33-.56,2L665,167.39Z" fill="#fff"/><path d="M677.31,172l-.12-1h-.05a2.94,2.94,0,0,1-2.41,1.18,2.26,2.26,0,0,1-2.42-2.27c0-1.91,1.7-3,4.75-2.94v-.16a1.63,1.63,0,0,0-1.79-1.83,3.94,3.94,0,0,0-2.06.59l-.33-.95a5,5,0,0,1,2.6-.7c2.41,0,3,1.65,3,3.23v2.95a12.07,12.07,0,0,0,.13,1.9Zm-.21-4c-1.57,0-3.35.24-3.35,1.78a1.27,1.27,0,0,0,1.35,1.37,2,2,0,0,0,1.91-1.32,1.56,1.56,0,0,0,.09-.46Z" fill="#fff"/><path d="M711.18,169.6h-5l-.91,2.53h-1.57l4.11-11.31h1.72l4.1,11.31H712.1Zm-.42-1.21-2.06-5.74-2.05,5.74Z" fill="#fff"/><path d="M715.46,165.22a4,4,0,0,1,1.53-1.61,4.2,4.2,0,0,1,2.16-.57,4,4,0,0,1,2,.5,3.37,3.37,0,0,1,1.29,1.28v-1.64H724v8.95h-1.5v-1.66a3.46,3.46,0,0,1-1.31,1.29,3.86,3.86,0,0,1-2,.52,4.07,4.07,0,0,1-2.16-.59,4.12,4.12,0,0,1-1.52-1.65,5.13,5.13,0,0,1-.55-2.41A5,5,0,0,1,715.46,165.22Zm6.61.66a2.84,2.84,0,0,0-1.1-1.15,3,3,0,0,0-1.52-.4,3,3,0,0,0-1.52.39,2.88,2.88,0,0,0-1.1,1.14,3.67,3.67,0,0,0-.4,1.77,3.71,3.71,0,0,0,.4,1.78,2.87,2.87,0,0,0,1.1,1.16,2.9,2.9,0,0,0,1.52.4,3,3,0,0,0,1.52-.4,2.81,2.81,0,0,0,1.1-1.16,4,4,0,0,0,0-3.53Z" fill="#fff"/><path d="M753.51,160.67l4,10.27a1.71,1.71,0,0,0,.55.82,1.17,1.17,0,0,0,.58.22v.33l-.81,0h-2.13l-.9,0V172a1.58,1.58,0,0,0,1.06-.28c.15-.17.12-.53-.1-1.09l-3-8.11.27-.21-2.84,7.38a3.73,3.73,0,0,0-.33,1.38.8.8,0,0,0,.37.71,2.22,2.22,0,0,0,1.05.22v.33l-1,0h-1.61l-.53,0V172a1.65,1.65,0,0,0,.67-.38,2.78,2.78,0,0,0,.62-1l3.83-9.89h.26Zm2,6.94v.33h-4.87l.16-.33Z" fill="#fff"/><path d="M761.19,172.43a1.79,1.79,0,0,1-2-2,1.81,1.81,0,0,1,.34-1.13,2.58,2.58,0,0,1,.86-.74,7.33,7.33,0,0,1,1.1-.49l1.1-.4a3.45,3.45,0,0,0,.86-.44.74.74,0,0,0,.33-.62v-1a2.2,2.2,0,0,0-.2-1,1.08,1.08,0,0,0-.55-.49,2.3,2.3,0,0,0-.77-.12,3.49,3.49,0,0,0-.87.12,1.24,1.24,0,0,0-.74.47,1,1,0,0,1,.76,1,.81.81,0,0,1-.26.65.93.93,0,0,1-.67.24.79.79,0,0,1-.69-.31,1.18,1.18,0,0,1,0-1.36,2.59,2.59,0,0,1,.54-.49,3.83,3.83,0,0,1,1-.45,4.68,4.68,0,0,1,1.35-.19,3.77,3.77,0,0,1,1.14.16,1.87,1.87,0,0,1,.78.45,1.82,1.82,0,0,1,.56.95,5.94,5.94,0,0,1,.13,1.35v4.54a1.24,1.24,0,0,0,.11.58.45.45,0,0,0,.4.19.88.88,0,0,0,.4-.1,2.39,2.39,0,0,0,.33-.25l.18.28a4.83,4.83,0,0,1-.65.43,1.69,1.69,0,0,1-.84.18A1.21,1.21,0,0,1,764,172a1.81,1.81,0,0,1-.28-1,2.72,2.72,0,0,1-1.18,1.16A3.3,3.3,0,0,1,761.19,172.43Zm.72-.66a1.86,1.86,0,0,0,1-.28,2.68,2.68,0,0,0,.88-1v-3.2a1.63,1.63,0,0,1-.76.57c-.34.14-.7.3-1.06.47a3.06,3.06,0,0,0-.94.68,1.79,1.79,0,0,0-.39,1.24,1.52,1.52,0,0,0,.38,1.12A1.29,1.29,0,0,0,761.91,171.77Z" fill="#fff"/><polygon points="151.28 619.24 143.34 661.82 148.57 661.82 156.32 619.24 151.28 619.24" fill="#2f2e41"/><polygon points="205.63 620.1 213.57 662.68 208.34 662.68 200.59 620.1 205.63 620.1" fill="#2f2e41"/><path d="M177.05,600.21s-1.94-18.22-4.65-26c0,0-4.07-10.26-4.45-20.53l-2.52-49L179,533.56s7.56,16.46,6.39,42c0,0-1.16,19-5,24.61Z" fill="#0071f2"/><path d="M237.16,553.53c-5.81,5.58-33,31.23-55.62,44.33a59.05,59.05,0,0,0,2.87-12.74l11.05-10s11.9-13.52,28.78-17.53a14.8,14.8,0,0,0,2.06-.62l10.52-4A.32.32,0,0,1,237.16,553.53Z" fill="#0071f2"/><path d="M237.16,553.53c-5.81,5.58-33,31.23-55.62,44.33a59.05,59.05,0,0,0,2.87-12.74l11.05-10s11.9-13.52,28.78-17.53a14.8,14.8,0,0,0,2.06-.62l10.52-4A.32.32,0,0,1,237.16,553.53Z" fill="#231f20" opacity="0.2"/><path d="M177.06,600.21h-4.27s-8.84-14.23-16.58-22a52,52,0,0,1-4.69-5.27l-1.94-2.57A183.59,183.59,0,0,1,137.91,553l-19-32.6,24.42,18.8s18.6,14.92,28.29,41.46A79,79,0,0,1,177.06,600.21Z" fill="#0071f2"/><path d="M172.79,600.21h-1.55L163.93,595a26.41,26.41,0,0,0-3.46-2.11c-13.4-6.71-36.88-29-43.1-35a.54.54,0,0,1,.54-.9c13.75,4.23,31.67,13.38,31.67,13.38l1.94,2.57a52,52,0,0,0,4.69,5.27C164,586,172.79,600.21,172.79,600.21Z" fill="#0071f2"/><path d="M172.79,600.21h-1.55L163.93,595a26.41,26.41,0,0,0-3.46-2.11c-13.4-6.71-36.88-29-43.1-35a.54.54,0,0,1,.54-.9c13.75,4.23,31.67,13.38,31.67,13.38l1.94,2.57a52,52,0,0,0,4.69,5.27C164,586,172.79,600.21,172.79,600.21Z" fill="#231f20" opacity="0.2"/><polygon points="200.11 643.41 157.29 643.41 149.59 600.21 205.15 600.21 200.11 643.41" fill="#2f2e41"/><polygon points="200.11 643.41 157.29 643.41 149.59 600.21 205.15 600.21 200.11 643.41" opacity="0.2"/><rect x="147.02" y="616.68" width="60.06" height="5.13" fill="#2f2e41"/><rect x="74.6" y="661.14" width="685.32" height="1.47" fill="#2f2e41"/></svg>